<?xml version="1.0" encoding="UTF-8" standalone="no"?>
<svg width="14px" height="14px" viewBox="0 0 14 14" version="1.1" xmlns="http://www.w3.org/2000/svg" xmlns:xlink="http://www.w3.org/1999/xlink" xmlns:sketch="http://www.bohemiancoding.com/sketch/ns">
    <g stroke="none" stroke-width="1" fill="none" fill-rule="evenodd">
        <g transform="translate(-494.000000, -1297.000000)" fill="#FFFFFF">
            <g transform="translate(-3.000000, 1246.000000)">
                <path d="M505.750044,51 C502.850731,51 500.5,53.3506437 500.5,56.2499563 C500.5,57.4629688 500.915319,58.5767563 501.606612,59.4654063 L497.192325,63.8797375 C497.064138,64.007925 497,64.1753562 497,64.3437063 C497,64.5116625 497.064138,64.6795313 497.192325,64.8077188 C497.320469,64.9359062 497.488381,65 497.656294,65 C497.824162,65 497.992075,64.9359062 498.120263,64.8077188 L502.53455,60.3934312 C503.423244,61.084725 504.537031,61.4999563 505.750044,61.4999563 C508.649312,61.4999563 511.000044,59.1492687 511.000044,56.2499563 C511.000044,53.3506437 508.649312,51 505.750044,51 L505.750044,51 Z M505.750044,60.1875 C503.578731,60.1875 501.812544,58.421225 501.812544,56.2499563 C501.812544,54.0786875 503.578731,52.3124563 505.750044,52.3124563 C507.921269,52.3124563 509.6875,54.0786875 509.6875,56.2499563 C509.6875,58.421225 507.921269,60.1875 505.750044,60.1875 L505.750044,60.1875 Z"></path>
            </g>
        </g>
    </g>
</svg>