<?xml version="1.0" encoding="UTF-8" standalone="no"?>
<svg width="18px" height="18px" viewBox="0 0 18 18" version="1.1" xmlns="http://www.w3.org/2000/svg" xmlns:xlink="http://www.w3.org/1999/xlink" xmlns:sketch="http://www.bohemiancoding.com/sketch/ns">
    <g stroke="none" stroke-width="1" fill="none" fill-rule="evenodd">
        <g transform="translate(-1392.000000, -337.000000)">
            <g transform="translate(107.000000, 289.000000)">
                <g transform="translate(0.000000, 24.000000)">
                    <g transform="translate(999.000000, 0.000000)">
                        <g transform="translate(287.000000, 25.000000)">
                            <path d="M7.638784,9.5680832 L8.918784,9.5680832 L8.918784,4.4480832 L7.638784,4.4480832 L7.638784,9.5680832 L7.638784,9.5680832 Z" id="Fill-1" fill="#D9332D"></path>
                            <path d="M7.638784,10.8480832 L8.918784,10.8480832 L8.918784,12.1280832 L7.638784,12.1280832 L7.638784,10.8480832 L7.638784,10.8480832 Z" id="Fill-2" fill="#D9332D"></path>
                            <path d="M0.598784,8.2880704 C0.598784,4.0467904 4.037504,0.6080704 8.278784,0.6080704 C12.520064,0.6080704 15.958784,4.0467904 15.958784,8.2880704 C15.958784,12.5293504 12.520064,15.9680704 8.278784,15.9680704 C4.037504,15.9680704 0.598784,12.5293504 0.598784,8.2880704 L0.598784,8.2880704 Z" id="Stroke-3" stroke="#D9332D"></path>
                        </g>
                    </g>
                </g>
            </g>
        </g>
    </g>
</svg>