<?xml version="1.0" encoding="UTF-8" standalone="no"?>
<svg width="20px" height="116px" viewBox="0 0 20 116" version="1.1" xmlns="http://www.w3.org/2000/svg" xmlns:xlink="http://www.w3.org/1999/xlink" xmlns:sketch="http://www.bohemiancoding.com/sketch/ns">
    <g stroke="none" stroke-width="1" fill="none" fill-rule="evenodd">
        <g transform="translate(-337.000000, -1453.000000)" fill="#FFFFFF">
            <g transform="translate(-3.000000, 1246.000000)">
                <g transform="translate(0.000000, 146.000000)">
                    <g transform="translate(87.000000, 44.000000)">
                        <g transform="translate(253.000000, 0.000000)">
                            <path d="M1.25,17 C0.5596875,17 0,17.5510748 0,18.2307645 L0,31.769174 C0,32.4489252 0.5596875,33 1.25,33 L18.75,33 C19.4403125,33 20,32.4489252 20,31.769174 L20,18.2307645 C20,17.5510748 19.4403125,17 18.75,17 L1.25,17 L1.25,17 Z M18.125,18.8461467 L18.125,19.3293449 L10,26.0420575 L1.875,19.3293449 L1.875,18.8461467 L18.125,18.8461467 L18.125,18.8461467 Z M1.875,31.1537917 L1.875,21.7391818 L9.1965,27.7881431 C9.4293125,27.9804501 9.7146875,28.0768805 10,28.0768805 C10.2853125,28.0768805 10.5706875,27.9804501 10.8035,27.7881431 L18.125,21.7391818 L18.125,31.1537917 L1.875,31.1537917 L1.875,31.1537917 Z"></path>
                        </g>
                    </g>
                </g>
            </g>
        </g>
    </g>
    <g stroke="none" stroke-width="1" fill="none" fill-rule="evenodd" transform="translate(0,100)">
        <g transform="translate(-337.000000, -1453.000000)" fill="#086fcf">
            <g transform="translate(-3.000000, 1246.000000)">
                <g transform="translate(0.000000, 146.000000)">
                    <g transform="translate(87.000000, 44.000000)">
                        <g transform="translate(253.000000, 0.000000)">
                            <path d="M1.25,17 C0.5596875,17 0,17.5510748 0,18.2307645 L0,31.769174 C0,32.4489252 0.5596875,33 1.25,33 L18.75,33 C19.4403125,33 20,32.4489252 20,31.769174 L20,18.2307645 C20,17.5510748 19.4403125,17 18.75,17 L1.25,17 L1.25,17 Z M18.125,18.8461467 L18.125,19.3293449 L10,26.0420575 L1.875,19.3293449 L1.875,18.8461467 L18.125,18.8461467 L18.125,18.8461467 Z M1.875,31.1537917 L1.875,21.7391818 L9.1965,27.7881431 C9.4293125,27.9804501 9.7146875,28.0768805 10,28.0768805 C10.2853125,28.0768805 10.5706875,27.9804501 10.8035,27.7881431 L18.125,21.7391818 L18.125,31.1537917 L1.875,31.1537917 L1.875,31.1537917 Z"></path>
                        </g>
                    </g>
                </g>
            </g>
        </g>
    </g>
</svg>