<?xml version="1.0" encoding="UTF-8" standalone="no"?>
<svg width="17px" height="17px" viewBox="0 0 17 17" version="1.1" xmlns="http://www.w3.org/2000/svg" xmlns:xlink="http://www.w3.org/1999/xlink" xmlns:sketch="http://www.bohemiancoding.com/sketch/ns">
    <g stroke="none" stroke-width="1" fill="none" fill-rule="evenodd">
        <g transform="translate(-84.000000, -1452.000000)" fill="#FFFFFF">
            <g transform="translate(-3.000000, 1246.000000)">
                <g transform="translate(0.000000, 146.000000)">
                    <g transform="translate(87.000000, 44.000000)">
                        <g>
                            <path d="M2.45142714,16.4991902 L1.44023661,17.2393816 C0.501109123,17.9267023 0.115405206,19.1132491 0.479182471,20.1918384 C2.34371727,25.7116998 6.86233868,30.163866 12.5667304,32.1007599 C13.566637,32.440758 14.7424056,32.1804046 15.4849626,31.4588626 L16.6414332,30.3355269 C16.8805748,30.1025014 17.0127117,29.7960476 17.0127117,29.4716829 C17.0127117,29.0089555 16.7447193,28.589128 16.3126617,28.3762906 L12.9893634,26.7372337 C12.8553672,26.6713759 12.6919431,26.7294169 12.6293688,26.7846881 L12.2411645,27.1267174 C11.283893,27.9699424 10.2078252,27.7523247 9.05071345,27.1801012 C7.56002166,26.442864 6.36533968,25.297863 5.59841976,23.8688122 C4.99114125,22.7384599 4.77488292,21.7606677 5.67137525,20.8250573 L6.02649726,20.453669 C6.06528563,20.4132927 6.11163935,20.3444806 6.11163935,20.2463095 C6.11163935,20.1976241 6.09965021,20.1509697 6.07656953,20.1077006 L4.36789348,16.9196948 C4.14625477,16.5054682 3.70861931,16.2485 3.22655353,16.2485 C2.94291753,16.2485 2.67492512,16.3354691 2.45142714,16.4991902 Z"></path>
                        </g>
                    </g>
                </g>
            </g>
        </g>
    </g>
</svg>