<?xml version="1.0" encoding="UTF-8" standalone="no"?>
<svg width="32px" height="22px" viewBox="0 0 32 22" version="1.1" xmlns="http://www.w3.org/2000/svg" xmlns:xlink="http://www.w3.org/1999/xlink" xmlns:sketch="http://www.bohemiancoding.com/sketch/ns">
    <g stroke="none" stroke-width="1" fill="none" fill-rule="evenodd">
        <g transform="translate(-587.000000, -1294.000000)" stroke="#086FCF" stroke-width="2">
            <g transform="translate(-3.000000, 1246.000000)">
                <g transform="translate(591.000000, 49.000000)">
                    <path d="M27,17 L30,17 L30,10 L28,4 L19,4 L19,17 L21,17"></path>
                    <path d="M27,17 C27,18.657 25.657,20 24,20 C22.343,20 21,18.657 21,17 C21,15.343 22.343,14 24,14 C25.657,14 27,15.343 27,17 L27,17 Z"></path>
                    <path d="M10,17 L19,17 L19,0 L0,0 L0,17 L4,17"></path>
                    <path d="M10,17 C10,18.657 8.657,20 7,20 C5.343,20 4,18.657 4,17 C4,15.343 5.343,14 7,14 C8.657,14 10,15.343 10,17 L10,17 Z"></path>
                    <path d="M15,4 L9,10 L5,6"></path>
                </g>
            </g>
        </g>
    </g>
</svg>