<?xml version="1.0" encoding="UTF-8" standalone="no"?>
<svg width="25px" height="27px" viewBox="0 0 25 27" version="1.1" xmlns="http://www.w3.org/2000/svg" xmlns:xlink="http://www.w3.org/1999/xlink" xmlns:sketch="http://www.bohemiancoding.com/sketch/ns">
    <g stroke="none" stroke-width="1" fill="none" fill-rule="evenodd">
        <g transform="translate(-715.000000, -1291.000000)">
            <g transform="translate(-3.000000, 1246.000000)">
                <g transform="translate(719.000000, 46.000000)">
                    <path d="M10,9.327 C11.657,9.327 13,10.67 13,12.327 C13,13.984 11.657,15.327 10,15.327 C8.343,15.327 7,13.984 7,12.327 C7,10.67 8.343,9.327 10,9.327 L10,9.327 Z" stroke="#086FCF" stroke-width="2"></path>
                    <path d="M15.5,15.327 C16.328,15.327 17,15.999 17,16.827 C17,17.655 16.328,18.327 15.5,18.327 C14.672,18.327 14,17.655 14,16.827 C14,15.999 14.672,15.327 15.5,15.327" fill="#086FCF"></path>
                    <path d="M10,9.327 L10,0" stroke="#086FCF" stroke-width="2"></path>
                    <path d="M12.2449,14.5311 L15.4289,16.7351" stroke="#086FCF" stroke-width="2"></path>
                    <path d="M15,25.327 L15,21.327 L16,21.327 C18,21.327 20,19.309 20,17.327 L20,15.077 C20,15.077 21.104,14.786 21.694,14.617 C22.456,14.4 22.63,13.572 22.281,12.889 C21.97,12.28 19.59,7.507 19.59,7.507 C19.59,7.507 18.199,0.327 10,0.327 C4.477,0.327 0,4.804 0,10.327 C0,14.112 3,16.901 3,20.463 L3,25.327" stroke="#086FCF" stroke-width="2"></path>
                </g>
            </g>
        </g>
    </g>
</svg>