<?xml version="1.0" encoding="UTF-8" standalone="no"?>
<svg width="26px" height="27px" viewBox="0 0 26 27" version="1.1" xmlns="http://www.w3.org/2000/svg" xmlns:xlink="http://www.w3.org/1999/xlink" xmlns:sketch="http://www.bohemiancoding.com/sketch/ns">
    <g stroke="none" stroke-width="1" fill="none" fill-rule="evenodd">
        <g transform="translate(-652.000000, -1292.000000)" stroke="#086FCF" stroke-width="2">
            <g transform="translate(-3.000000, 1246.000000)">
                <g transform="translate(657.000000, 47.000000)">
                    <path d="M12.3549,17.1142 L16.2759,23.0002 L17.6639,19.6722 L21.2689,19.6732 L17.5779,14.1322"></path>
                    <path d="M9.6451,17.1142 L5.7241,23.0002 L4.3361,19.6722 L0.7311,19.6732 L4.4221,14.1322"></path>
                    <path d="M12.2342,0.4906 L14.0272,1.7846 L16.2092,2.1376 C17.1062,2.2826 17.8092,2.9856 17.9542,3.8826 L18.3072,6.0646 L19.6012,7.8576 C20.1332,8.5946 20.1332,9.5896 19.6012,10.3256 L18.3072,12.1186 L17.9542,14.3016 C17.8092,15.1986 17.1062,15.9016 16.2092,16.0466 L14.0272,16.3996 L12.2342,17.6926 C11.4972,18.2246 10.5032,18.2246 9.7662,17.6926 L7.9732,16.3996 L5.7912,16.0466 C4.8932,15.9016 4.1902,15.1986 4.0452,14.3016 L3.6922,12.1186 L2.3992,10.3256 C1.8672,9.5896 1.8672,8.5946 2.3992,7.8576 L3.6922,6.0646 L4.0452,3.8826 C4.1902,2.9856 4.8932,2.2826 5.7912,2.1376 L7.9732,1.7846 L9.7662,0.4906 C10.5032,-0.0414 11.4972,-0.0414 12.2342,0.4906 L12.2342,0.4906 Z"></path>
                </g>
            </g>
        </g>
    </g>
</svg>