<?xml version="1.0" encoding="UTF-8" standalone="no"?>
<svg width="15px" height="17px" viewBox="0 0 15 17" version="1.1" xmlns="http://www.w3.org/2000/svg" xmlns:xlink="http://www.w3.org/1999/xlink" xmlns:sketch="http://www.bohemiancoding.com/sketch/ns">
    <g stroke="none" stroke-width="1" fill="none" fill-rule="evenodd">
        <g transform="translate(-20.000000, -1229.000000)" fill="#086FCF">
            <g transform="translate(20.000000, 1229.000000)">
                <path d="M13.2812447,17 L1.06247875,17 C0.476525937,17 0,16.5234688 0,15.9375 L0,6.375 C0,5.7895625 0.476525937,5.3125 1.06247875,5.3125 L3.98436969,5.3125 C4.42456344,5.3125 4.78124469,5.6695 4.78124469,6.109375 C4.78124469,6.54925 4.42456344,6.90625 3.98436969,6.90625 L1.59375,6.90625 L1.59375,15.40625 L12.7499947,15.40625 L12.7499947,6.90625 L10.3593697,6.90625 C9.91917594,6.90625 9.56249469,6.54925 9.56249469,6.109375 C9.56249469,5.6695 9.91917594,5.3125 10.3593697,5.3125 L13.2812447,5.3125 C13.8672134,5.3125 14.3437447,5.7895625 14.3437447,6.375 L14.3437447,15.9375 C14.3437447,16.5234688 13.8672134,17 13.2812447,17 L13.2812447,17 Z M9.82811969,4.25 C9.60812906,4.25 9.40891031,4.16075 9.26472906,4.01678125 L7.96874469,2.72053125 L7.96874469,11.421875 C7.96874469,11.86175 7.61206344,12.21875 7.17186969,12.21875 C6.73167594,12.21875 6.37499469,11.86175 6.37499469,11.421875 L6.37499469,2.72053125 L5.07901031,4.01678125 C4.93482906,4.16075 4.73561031,4.25 4.51561969,4.25 C4.07542594,4.25 3.71874469,3.893 3.71874469,3.453125 C3.71874469,3.2331875 3.80799469,3.03396875 3.95222906,2.89 L6.60847906,0.23375 C6.75266031,0.08925 6.95187906,0 7.17186969,0 C7.39186031,0 7.59107906,0.08925 7.73526031,0.23375 L10.3915103,2.89 C10.5357447,3.03396875 10.6249947,3.2331875 10.6249947,3.453125 C10.6249947,3.893 10.2683134,4.25 9.82811969,4.25 L9.82811969,4.25 Z"></path>
            </g>
        </g>
    </g>
</svg>