<?xml version="1.0" encoding="UTF-8" standalone="no"?>
<svg width="17px" height="18px" viewBox="0 0 17 18" version="1.1" xmlns="http://www.w3.org/2000/svg" xmlns:xlink="http://www.w3.org/1999/xlink" xmlns:sketch="http://www.bohemiancoding.com/sketch/ns">
    <g stroke="none" stroke-width="1" fill="none" fill-rule="evenodd">
        <g transform="translate(-1133.000000, -1589.000000)" fill="#B5B6BD">
            <g transform="translate(-3.000000, 1246.000000)">
                <g transform="translate(0.000000, 146.000000)">
                    <g transform="translate(1040.000000, 190.000000)">
                        <g transform="translate(88.615385, 0.000000)">
                            <g transform="translate(7.384615, 7.384615)">
                                <path d="M15.1249947,16.7513808 L2.10577453,16.7513808 C2.07115821,16.745805 2.03630957,16.7390676 2.00169325,16.7348858 C1.28590215,16.6428854 0.684182273,16.0964587 0.524807819,15.3915868 C0.506221877,15.309344 0.494373339,15.2259396 0.479504585,15.1432322 L0.479504585,2.08823404 C0.484848043,2.05779956 0.491120799,2.02759741 0.495302636,1.99716293 C0.597989966,1.2667354 1.13140651,0.68615703 1.85230874,0.521903766 C1.92990505,0.50424712 2.00912763,0.493560204 2.08788556,0.479388423 L15.1428837,0.479388423 C15.1730858,0.484731881 15.2030557,0.491469285 15.2337225,0.495418798 C15.9722813,0.596479859 16.5737689,1.1624218 16.7161837,1.8916877 C16.7301231,1.96277893 16.7398808,2.03433481 16.7512646,2.10565836 L16.7512646,15.1251109 C16.7394161,15.197596 16.7291938,15.2710105 16.7152544,15.3432634 C16.5853851,16.0116603 16.0424433,16.565986 15.3779958,16.7070069 C15.2943591,16.7251282 15.2095607,16.7369767 15.1249947,16.7513808 Z M2.23982563,7.07716558 L2.23982563,7.12107486 C2.23982563,9.529116 2.23959331,11.9371571 2.24005796,14.3451983 C2.24005796,14.6915938 2.5399886,14.9894335 2.8863841,14.9894335 C6.70486592,14.9896658 10.5231154,14.9896658 14.3415972,14.9894335 C14.6912453,14.9894335 14.9895497,14.6920584 14.9895497,14.3431073 C14.989782,11.9378541 14.9895497,9.53283319 14.9895497,7.12781227 L14.9895497,7.07786255 L13.4362295,7.07786255 C13.6555437,7.77878489 13.7229177,8.4917881 13.6369577,9.21849844 C13.5505331,9.9454411 13.3163502,10.6219694 12.9348737,11.2466894 C12.553165,11.8721063 12.0583142,12.3901895 11.4524125,12.8025651 C9.88190041,13.872186 7.81421434,13.9662774 6.1477523,13.0309398 C5.30534447,12.5586246 4.64391726,11.8999852 4.18275357,11.0513047 C3.49484138,9.78490503 3.384952,8.45577784 3.78849927,7.07670093 C3.27320402,7.07716558 2.75999969,7.07716558 2.23982563,7.07716558 Z M8.61550078,5.31800615 C6.81080579,5.31684453 5.34367798,6.76887126 5.31835463,8.5654349 C5.29233431,10.410322 6.76921975,11.8728033 8.53976306,11.9109045 C10.3820946,11.9503996 11.8722225,10.478393 11.9110207,8.68810211 C11.9507481,6.84182108 10.4615495,5.31684453 8.61550078,5.31800615 Z M13.5600584,4.65704358 L13.5600584,4.65402336 C13.8276959,4.65402336 14.0962628,4.6591345 14.3641327,4.65262942 C14.7086696,4.64403342 14.9893173,4.34874926 14.9893173,4.00374771 C14.9895497,3.49007873 14.9895497,2.97617743 14.9893173,2.46250845 C14.9893173,2.09404215 14.6977504,1.80084891 14.3297487,1.80061659 C13.8174737,1.80038426 13.3051986,1.80015194 12.7926913,1.80061659 C12.4256189,1.80108124 12.1331227,2.09497145 12.1328903,2.46343775 C12.132658,2.97269257 12.1312641,3.48194738 12.1347489,3.99143452 C12.1352136,4.06740456 12.1496177,4.14639482 12.1737794,4.21841534 C12.2657798,4.48953777 12.5141345,4.65588196 12.818247,4.6572759 C13.06544,4.65774055 13.312633,4.65704358 13.5600584,4.65704358 Z"></path>
                            </g>
                        </g>
                    </g>
                </g>
            </g>
        </g>
    </g>
</svg>