<?xml version="1.0" encoding="UTF-8" standalone="no"?>
<svg width="17px" height="18px" viewBox="0 0 17 18" version="1.1" xmlns="http://www.w3.org/2000/svg" xmlns:xlink="http://www.w3.org/1999/xlink" xmlns:sketch="http://www.bohemiancoding.com/sketch/ns">
    <g stroke="none" stroke-width="1" fill="none" fill-rule="evenodd">
        <g transform="translate(-921.000000, -1297.000000)" fill="#B5B7BD">
            <g transform="translate(-3.000000, 1246.000000)">
                <path d="M939.124995,68.1359962 L926.105775,68.1359962 C926.071158,68.1304204 926.03631,68.123683 926.001693,68.1195012 C925.285902,68.0275008 924.684182,67.4810741 924.524808,66.7762022 C924.506222,66.6939594 924.494373,66.610555 924.479505,66.5278475 L924.479505,53.4728494 C924.484848,53.4424149 924.491121,53.4122128 924.495303,53.3817783 C924.59799,52.6513508 925.131407,52.0707724 925.852309,51.9065192 C925.929905,51.8888625 926.009128,51.8781756 926.087886,51.8640038 L939.142884,51.8640038 C939.173086,51.8693473 939.203056,51.8760847 939.233722,51.8800342 C939.972281,51.9810952 940.573769,52.5470372 940.716184,53.2763031 C940.730123,53.3473943 940.739881,53.4189502 940.751265,53.4902737 L940.751265,66.5097263 C940.739416,66.5822114 940.729194,66.6556259 940.715254,66.7278787 C940.585385,67.3962757 940.042443,67.9506014 939.377996,68.0916223 C939.294359,68.1097435 939.209561,68.1215921 939.124995,68.1359962 Z M926.239826,58.461781 L926.239826,58.5056902 C926.239826,60.9137314 926.239593,63.3217725 926.240058,65.7298137 C926.240058,66.0762091 926.539989,66.3740489 926.886384,66.3740489 C930.704866,66.3742812 934.523115,66.3742812 938.341597,66.3740489 C938.691245,66.3740489 938.98955,66.0766738 938.98955,65.7277227 C938.989782,63.3224695 938.98955,60.9174486 938.98955,58.5124277 L938.98955,58.4624779 L937.43623,58.4624779 C937.655544,59.1634003 937.722918,59.8764035 937.636958,60.6031138 C937.550533,61.3300565 937.31635,62.0065848 936.934874,62.6313048 C936.553165,63.2567217 936.058314,63.7748049 935.452413,64.1871805 C933.8819,65.2568014 931.814214,65.3508928 930.147752,64.4155552 C929.305344,63.94324 928.643917,63.2846006 928.182754,62.43592 C927.494841,61.1695204 927.384952,59.8403932 927.788499,58.4613163 C927.273204,58.461781 926.76,58.461781 926.239826,58.461781 Z M932.615501,56.7026215 C930.810806,56.7014599 929.343678,58.1534866 929.318355,59.9500503 C929.292334,61.7949374 930.76922,63.2574187 932.539763,63.2955199 C934.382095,63.335015 935.872222,61.8630084 935.911021,60.0727175 C935.950748,58.2264365 934.461549,56.7014599 932.615501,56.7026215 Z M937.560058,56.041659 L937.560058,56.0386387 C937.827696,56.0386387 938.096263,56.0437499 938.364133,56.0372448 C938.70867,56.0286488 938.989317,55.7333646 938.989317,55.3883631 C938.98955,54.8746941 938.98955,54.3607928 938.989317,53.8471238 C938.989317,53.4786575 938.69775,53.1854643 938.329749,53.185232 C937.817474,53.1849996 937.305199,53.1847673 936.792691,53.185232 C936.425619,53.1856966 936.133123,53.4795868 936.13289,53.8480531 C936.132658,54.357308 936.131264,54.8665628 936.134749,55.3760499 C936.135214,55.4520199 936.149618,55.5310102 936.173779,55.6030307 C936.26578,55.8741532 936.514134,56.0404973 936.818247,56.0418913 C937.06544,56.0423559 937.312633,56.041659 937.560058,56.041659 Z"></path>
            </g>
        </g>
    </g>
</svg>