<?xml version="1.0" encoding="UTF-8" standalone="no"?>
<svg width="16px" height="14px" viewBox="0 0 16 14" version="1.1" xmlns="http://www.w3.org/2000/svg" xmlns:xlink="http://www.w3.org/1999/xlink" xmlns:sketch="http://www.bohemiancoding.com/sketch/ns">
    <g stroke="none" stroke-width="1" fill="none" fill-rule="evenodd">
        <g transform="translate(-1045.000000, -1591.000000)" fill="#FFFFFF">
            <g transform="translate(-3.000000, 1246.000000)">
                <g transform="translate(0.000000, 146.000000)">
                    <g transform="translate(1040.000000, 190.000000)">
                        <g>
                            <path d="M18.2225089,9.75097601 C16.8255689,10.2594173 15.9427029,11.570066 16.0432826,13.0050004 L16.0768091,13.5586365 L15.5180331,13.4908443 C13.4840885,13.2309743 11.7071809,12.3496761 10.1984858,10.8695469 L9.46090147,10.1351317 L9.27091763,10.6774691 C8.86859892,11.8864295 9.12563588,13.1631822 9.96379985,14.021883 C10.4108206,14.4964283 10.310241,14.5642204 9.5391301,14.281753 C9.27091763,14.1913635 9.03623172,14.1235713 9.01388068,14.1574674 C8.93565204,14.2365583 9.20386451,15.2647396 9.41619939,15.6714926 C9.7067629,16.2364274 10.2990654,16.7900635 10.9472456,17.1177257 L11.494846,17.3775957 L10.8466659,17.3888944 C10.2208368,17.3888944 10.1984858,17.4001931 10.2655389,17.6374657 C10.4890493,18.3718809 11.3719153,19.151491 12.3553611,19.4904518 L13.0482433,19.7277244 L12.4447652,20.0892827 C11.5507236,20.6090227 10.5002248,20.9027888 9.44972595,20.9253862 C8.94682756,20.9366849 8.53333333,20.9818797 8.53333333,21.0157758 C8.53333333,21.1287627 9.89674673,21.7614897 10.6902086,22.010061 C13.0705943,22.7444762 15.8980008,22.4281128 18.0213495,21.1739575 C19.5300447,20.2813605 21.0387398,18.5074653 21.7427976,16.7900635 C22.1227653,15.8748692 22.5027329,14.2026622 22.5027329,13.4004548 C22.5027329,12.8807148 22.5362595,12.8129226 23.1620886,12.1914943 C23.5308807,11.829936 23.8773218,11.4344817 23.944375,11.3214947 C24.0561302,11.1068195 24.0449546,11.1068195 23.4750031,11.2988973 C22.525084,11.6378582 22.3909777,11.5926634 22.8603496,11.0842221 C23.2067907,10.7226639 23.6202849,10.0673395 23.6202849,9.87526167 C23.6202849,9.84136558 23.4526521,9.89785906 23.2626683,9.99954732 C23.0615089,10.1125343 22.6144881,10.2820147 22.2792225,10.383703 L21.6757445,10.5757808 L21.128144,10.2029238 C20.826405,9.99954732 20.4017352,9.7735734 20.1782248,9.70578123 C19.6082733,9.54759949 18.7365828,9.57019688 18.2225089,9.75097601 L18.2225089,9.75097601 Z"></path>
                        </g>
                    </g>
                </g>
            </g>
        </g>
    </g>
</svg>