<?xml version="1.0" encoding="UTF-8" standalone="no"?>
<svg width="14px" height="18px" viewBox="0 0 14 18" version="1.1" xmlns="http://www.w3.org/2000/svg" xmlns:xlink="http://www.w3.org/1999/xlink" xmlns:sketch="http://www.bohemiancoding.com/sketch/ns">
    <g stroke="none" stroke-width="1" fill="none" fill-rule="evenodd">
        <g transform="translate(-1179.000000, -1589.000000)" fill="#B5B6BD">
            <g transform="translate(-3.000000, 1246.000000)">
                <g transform="translate(0.000000, 146.000000)">
                    <g transform="translate(1040.000000, 190.000000)">
                        <g transform="translate(132.923077, 0.000000)">
                            <path d="M16.4177088,7.08554643 C11.5521548,7.08554643 9.09890467,10.573941 9.09890467,13.4829458 C9.09890467,15.2443177 9.76576013,16.8113087 11.196036,17.3952479 C11.4305671,17.4911304 11.6406442,17.3985464 11.7086605,17.1388788 C11.7559762,16.9591702 11.867896,16.505804 11.9178277,16.3169962 C11.9864127,16.0601721 11.9597976,15.9700903 11.7705349,15.7462507 C11.358115,15.2597863 11.0945803,14.63001 11.0945803,13.7379501 C11.0945803,11.1499185 13.0308838,8.83304214 16.1366582,8.83304214 C18.8867687,8.83304214 20.397686,10.5134315 20.397686,12.7576282 C20.397686,15.7104228 19.0909314,18.2025718 17.1509882,18.2025718 C16.0796746,18.2025718 15.2776965,17.3165401 15.534748,16.2298717 C15.8425275,14.9325574 16.4387506,13.5324225 16.4387506,12.5960041 C16.4387506,11.7577431 15.9887966,11.0585855 15.0576103,11.0585855 C13.9624114,11.0585855 13.0826353,12.191546 13.0826353,13.7092877 C13.0826353,14.6759608 13.4092955,15.3297362 13.4092955,15.3297362 C13.4092955,15.3297362 12.2885052,20.0784796 12.0920768,20.9101438 C11.7008125,22.5664203 12.0332734,24.5967865 12.0613671,24.8018591 C12.0778594,24.923333 12.2340239,24.9522229 12.30477,24.860435 C12.4057707,24.7286107 13.7101368,23.118285 14.1536077,21.5092104 C14.2790625,21.0535695 14.8739208,18.6942683 14.8739208,18.6942683 C15.2296983,19.3729527 16.2696198,19.9707682 17.3755102,19.9707682 C20.6675902,19.9707682 22.9010953,16.9695205 22.9010953,12.9522367 C22.9010953,9.91459231 20.3281911,7.08554643 16.4177088,7.08554643 L16.4177088,7.08554643 Z"></path>
                        </g>
                    </g>
                </g>
            </g>
        </g>
    </g>
</svg>